<svg xmlns="http://www.w3.org/2000/svg" viewBox="0 0 290.39 84.33"><defs><style>.cls-1{fill:#fff;}</style></defs><title>Asset 14</title><g id="Layer_2" data-name="Layer 2"><g id="Layer_1-2" data-name="Layer 1"><rect class="cls-1" x="130.78" y="-76.39" width="30.49" height="281.06" transform="translate(78.35 208.57) rotate(-88.61)"/><path class="cls-1" d="M216.85,76.82c-21.41-.8-27.06-2-49.26-2.12-10.58-.35-21.89-.37-32.24-.49-4.93.73-13.59-.32-19.42.25l-2.24-.53a27,27,0,0,1-6.37,0l.13-.14c-3,.29-6.37,0-7.86.14l.13-.14-3.64,0,.63-.18a141.69,141.69,0,0,1-15.34-.14l.38.59c-10.11-.9-13.85.22-23-.77l.13-.14c-11.59,1.25-18.24-1.49-30.19-.32,1.49-.15-.63-.31-.51-.45-5.49,0-11.35,0-11.46,1.11-4-.11-3.25-.44-3.76-.89,0,.25-.86.41-2.12.49a2.32,2.32,0,0,0-.32,0l-.24,0-.53,0c-.37,0-.76,0-1.14,0L9.44,73l-1.2,0,0-1.4V69.7l-.49.87a6.19,6.19,0,0,0-.49.56L7.38,70a6.12,6.12,0,0,1,.18-.83,1.61,1.61,0,0,1,.38-.68c.23-.27.4-.52.34-2.79l-.78,0a63.85,63.85,0,0,1,1-8.44L9.2,53.4l.33-2.09,0-.27,0-.08.07-.16.12-.29.05-.89,1.25,0,4.31.07,9.68.09,19.39,0c12.86.05,25.48.25,37.21,1.19l1.07.61c.45.87,6.8-1.1,7.72-.29L93.33,51c.8.17,2.49.38,1.06.54A20.1,20.1,0,0,0,99,51.33l2.82.6c10.41.67,19.3-.15,30.26.33,13.15,1.41,38,1,52.27.78,20.11-.79,43.39,3.19,64,2.22a6.4,6.4,0,0,0,2.39-.19l18.81.58,5.11.12,5.49.1,1.32,0H282l1.16,0c0,.46,0,.94,0,1.42V60.9c0,2.91,0,5.78.1,8.45a88.6,88.6,0,0,0,.81,12.05c.44,2.25,1.09,2.27,2-1.32.46-1.8,1-4.5,1.6-8.28.31-1.89.63-4,1-6.49l.53-3.89.28-2.11c.1-.76.18-1.29.3-2.67l.17.72q.22-4.48.41-8.36-4.47-.2-8.57-.33l-2.53-.07-2.31,0a82.56,82.56,0,0,0-8.77.47c-1.09-1.18-8.46-.32-10.86-.76l.23-.09c-6.3.73-12.92-1.05-19-.41a2.6,2.6,0,0,1,1.77-.38c-4.42,0-10.46.15-10.77-.53-10.54-.08-25.24-.75-32,.16l.47-.17c-3.87.63-5,0-9.29.25-.23-.09-.53-.15-.49-.18-4.21.61-12.24-.19-15.63,0l-.21-.45-8.35-.1,3.12.17c-1.11,1.2-6.29-.92-12.37-.27-5.66-.29-11.55,2.26-17.42,1.52-2.82.5,2.49-.87-1.71-.53-.12-.64,2-.35.9-.89-4.13.2-6.74-.82-11.83-.51l-.2-.5c-6.65.75-12.49-1-16.92-.2-6.84.24-4.55-1.59-11.69-.79l-2.75-.74c-3-.18-2.2.77-5.57.36.22-.42-4.26-.44-2.27-.8-7.63-.85-15.54.56-25.57-.8-2.21.77-7.26.16-8.91.74-.26-.37-10.15-.31-4.44-.95.49-.05,1.35,0,1.29.12l.69-.47c-5.72-1.06-10.44.25-16.12,0,1.68.2,3.92.21,2.41.51l-5.27-.2,1.11-.39-7.86-.43,1.07.54c-3.84-.35-5.17-1.25-9.53-.64-2,.35,3.63.77-.44.84-1.2-.1-1.92-.2-4.54-.35l-7.33-.44C1.63,46.37,1.3,51.93,1,57c.59-.6.52,1.17.6,3l-.5.2c.52,7-1.16,2.53-.78,9.46L0,69l.5.93.25.46.24.82A48.79,48.79,0,0,1,1.12,77C1,78.3.9,79.18.77,80.16a17.67,17.67,0,0,0,3,.23c1.45,0,3.58-.06,6.5-.32-2.4,0-2.84-.3-2-.54a9.92,9.92,0,0,1,2-.29l.58,0,.51,0c.36,0,.75,0,1.17,0l-.87.46a27.47,27.47,0,0,1,3.74-.11c-1.12.23-.6.68,2.14.67l-1.85.56,5.21-.76c4,.61,10.36.12,12,.84,0,0,8.61.54,10.6-.15-1.74.42,3,.71,1.64,1.22,2.24-.47,8.85-.73,11.48-.11l-.5.05c9.75.8,16.71-.37,25.46.53-.39-.59,4.23-.16,3.11-.93,9.08-.51,16.49,1.9,19.82-.3,4.13,0,4.87.66,7,.82l-1,.1c7.73,0,10,0,15.71.23,2.87-.15,3.35-1.2,8.47-.82-1.67.38.43.35,2.35.4-1.23,0-1.61.18.9.53a7.44,7.44,0,0,1,1.42-.24s.12.06.07.11c3.21-.07,2.65-.22,1.17-.31.08-.06,0-.15-.5-.28,3.31.63,9.27.19,9.66.92,9.64.07,16.55-.51,24.57-.6.89.4-1,.68-3.32.77h5.69c-.06.53-3.28.23-5,.29,6.75,1,14-.52,21.91.46l1.66-.38.47.08c0-.23,1.77-.49,3-.53,1.11.49-.11,1.07,3.83,1.14,3.1.53,8.84,0,12.92-.16-2.19-.13-1.48-.37-.53-.52,2,0,3.09.53,4.61.36l.17.64c-.76-.61,5.15-.52,5.89-.75,1.11.49-3.06.33-3.56.67l11.83.2C238,84,233,83.71,235,83.21c3.72,0,7.35-.38,11.61.1l-1.34-.59a80.75,80.75,0,0,1,15.85.58c52.09-3.29,11.1-6,11.1-6-20.43-1.73-31-.36-55.41-.52"/><path class="cls-1" d="M207.72,47.36l-1.88.16.16-.11c-.62,0-1.21.05-1.76.07a17.25,17.25,0,0,0-2.76.21l0-.07-1,.06c-.7,0-1.5.1-2,.09V47.7l-.61.08c-1,0-1.81.05-2.59.1S194,48,193.39,48v0c-1.83.06-2.92,0-3.81,0-.43,0-.8,0-1.19,0-.09.23-.43.28-.78.34a26.06,26.06,0,0,0-3.65.1c-1.37.09-3.09.22-5.38.23V48.4l-.11,0c-1.19.07-1.52.11-2.06.18l-.42.05-.75,0c-1,.11-1.33.17-1.59.2-.46.07-.6.09-3.36.27V49H170a3.73,3.73,0,0,1-.73,0h0c-1.05,0-2.08.12-2.86.19h0c-2,.11-2.87.13-3.67.14s-1.58,0-3.39.15v.06c-4.71.33-10.54.53-15.57.78v.05l-1.29.07c-1.2.07-2.84.17-3.92.17v-.15l-.76,0-.48.11-.59,0h-.26c-.15.13-.47.13-1.09.17s-3,0-5.17.1l-1.41.06.62.11-3.78.13-5.29.17c-2.75.08-4.93.14-8.39.32v0a29.68,29.68,0,0,0-3.52.23l-.47.07,0-.12c-1.6.16-3.22.16-4.67.17A30.42,30.42,0,0,0,99.9,52l-1.41.19.42-.35-.55,0a4.46,4.46,0,0,1-1.52-.21l-.36-.61a2.28,2.28,0,0,1-.85,0l-2.56-.19,2.82-1a14.74,14.74,0,0,1,2.52-.2,26.36,26.36,0,0,0,2.64-.19l2.89,0v-.09l.55,0c0-3,0-7.21,0-10.19,0-2,.08-4,.1-6a18.22,18.22,0,0,0-.2-3.09c-.05-.33-.15-.78-.38-.92a1,1,0,0,0-.77,0,1.59,1.59,0,0,1-1.44-.13,2.12,2.12,0,0,1-.84-1.65,5.75,5.75,0,0,0-.17-.88,4.68,4.68,0,0,1-.2-1.5c0-.43.1-1.44,1.1-1.59a1.76,1.76,0,0,1,1.77.82,7.62,7.62,0,0,1,1,2.28c.11.35.23.7.37,1l.11.28,0,.14a3.77,3.77,0,0,0-.58-3.83A2.09,2.09,0,0,1,104,23a4.92,4.92,0,0,0-.84-2.84,1.42,1.42,0,0,1-.07-1.38c.29-.93.63-1.79,1-2.62a27.85,27.85,0,0,0,1.18-3.39,2,2,0,0,1,1.17-1.34,2.05,2.05,0,0,1,1.78,0,1.11,1.11,0,0,1,.71,1.18,7.81,7.81,0,0,0,0,1.14,5.27,5.27,0,0,1-.28,2.11l-.05.12-.06.13a3.56,3.56,0,0,1-.85,3.73,2.27,2.27,0,0,0,.11.21l.12.22a3.39,3.39,0,0,1-.43,3.74,3.41,3.41,0,0,0-.61,1.65,56.45,56.45,0,0,0-.56,11.75v.15a1.06,1.06,0,0,0,0,.29.86.86,0,0,0,.23-.2l.65-.64c.74-.72,1.47-1.44,2.17-2.2a2.72,2.72,0,0,1,1.61-1,1.8,1.8,0,0,0,.32-.11,1.1,1.1,0,0,1,1.64.57,2.65,2.65,0,0,1-.1,2.09,1.64,1.64,0,0,1-1,.91c-.56.15-.75.3-.89.69-.4,1.14-1.41.87-1.89.74l-.31-.07a2.78,2.78,0,0,0-1.82.58,1.29,1.29,0,0,0-.55.79,54,54,0,0,0-.17,7.88l.85-.25.33-.67a37.55,37.55,0,0,1,5.93-8.31A31.5,31.5,0,0,0,116.51,34l.73-1.18a1.61,1.61,0,0,0,.1-.19,1.18,1.18,0,0,1,.85-.78l.16,0,.15.09a.76.76,0,0,1,.27,1.1,10.81,10.81,0,0,1-2.32,4.14,38.14,38.14,0,0,0-4.19,6.33c-.68,1.2-1.39,2.44-2.16,3.62l-.36-.24-1.6.47,0,0c-.28.58-.58,1.16-.87,1.74,5.49-.09,11.1-.34,16.54-.61h0c0-.1,0-.2,0-.3,0-.61-.11-1.23-.18-1.84s-.14-1.3-.19-2-.08-1.33-.11-2c-.05-1.13-.1-2.3-.24-3.43-.29-2.46-.47-5-.65-7.38l-.05-.73c0-.58-.07-1.17-.09-1.76,0-.83-.07-1.69-.16-2.52-.24-2.14-.46-4.28-.68-6.42l-.19-1.83c-.27-2.66-.68-5.31-1.07-7.78-.08-.49-.19-1-.3-1.48a17.83,17.83,0,0,1-.37-2l0-.16a5.55,5.55,0,0,1-.06-1,5.45,5.45,0,0,0-.23-2,5.2,5.2,0,0,1,0-3,1.14,1.14,0,0,1,1-.9c.6-.06.83.48.95.73l0,.11a2.4,2.4,0,0,1,.33,1.39.39.39,0,0,0,0,.21,2.92,2.92,0,0,1,.31,1.69A5.86,5.86,0,0,0,122,5.48c0,.15.05.29.08.44a9.12,9.12,0,0,1-.29,4.08,1,1,0,0,0-.06.24,25.38,25.38,0,0,1,.06,2.64,16,16,0,0,0,.26,3.9,12.21,12.21,0,0,1,.24,1.88l0,.51c.07.79.21,1.58.34,2.35s.3,1.7.36,2.57q.12,1.65.23,3.3c.13-.75.27-1.51.43-2.27s.43-1.82.76-2.9a15.71,15.71,0,0,0,.52-3.24c0-.35.06-.71.1-1.06.07-.67.14-1.3.21-1.93a.57.57,0,0,1,.51-.56l.28-.06.07.28a7.68,7.68,0,0,1,.19,2.64,14.7,14.7,0,0,1-.45,2.34,14.76,14.76,0,0,0-.42,2.11c-.13,1.34-.25,2.68-.37,4q-.12,1.45-.26,2.9l-.13,1.44c-.15,1.68-.31,3.42-.53,5.13a22,22,0,0,0,.09,4.76l0,.43a88.73,88.73,0,0,1,2.6-9.4c1.11-3.41,2.32-7,3.76-10.63l.15-.37.32.24a.56.56,0,0,1,.22.7l-.92,2.75q-.87,2.6-1.73,5.21c-.28.85-.57,1.69-.86,2.54a60.45,60.45,0,0,0-2.37,8.14l-.09.44c-.06.31-.12.61-.17.92a29.25,29.25,0,0,1,2.1-3.85L128,37a20.87,20.87,0,0,0,1.57-3.6l.36-1c.17-.47.33-.93.5-1.39l0-.09c0-.16.2-.66.67-.53a.51.51,0,0,1,.33.25.7.7,0,0,1,0,.57.62.62,0,0,0,0,.1,14.89,14.89,0,0,1-1.44,4l-.2.42c-1.34,2.83-3,5.57-4.39,8a4.08,4.08,0,0,0-.74,2.83,15,15,0,0,1,.18,1.93c4.13-.2,8.35-.4,12.45-.51h0V47.8a8,8,0,0,0,1.93-.11,6.81,6.81,0,0,1,.87-.11l2.7.07.39-.17c2.3-.12,4.58-.2,6.77-.27,1.74-.06,3.42-.12,5-.19a9.44,9.44,0,0,1-3.63-2.15c-2.47-2.26-3.56-6.29-3.6-6.46s-.15-.62.22-.89,1-.1,2.1.56a16.57,16.57,0,0,1,5.12,5.38c0-1-.1-1.45-.42-1.67-.77-.52-3.1-5.28-3.15-7.08a3.16,3.16,0,0,0-1.52-2.13c-.52-.33-.7-.56-.64-.79s.39-.27.49-.28a5.6,5.6,0,0,1,1.42.26c1.1.32,2.65,1.65,4.26,3.63s.62,5.55.48,6l.59,5.53,1-.06a1.8,1.8,0,0,1,.83.1,16.32,16.32,0,0,1,2.49-.21c.69,0,1.53-.08,1.81-.12V46.6H163c.75,0,2,0,3.11,0,1.81-.05,2.46-.07,2.71.09l.8-.05v-.14l1.71-.07a42,42,0,0,0,.1-10c-1.55.34-3.21-.82-4-2.06a39.22,39.22,0,0,1-2-4.66c-1.61-3.5-5.73-4.71-7.47-8.06-.4-.77.73-1.55,1.41-1.5A14.89,14.89,0,0,1,172,29.46a.59.59,0,0,1,.63.05,11.28,11.28,0,0,1,1.28-5.71c.74-1.38,2-2.7,3.52-2.76,1.4-.06,2.62.9,4,1.28s2.89-2.28,4.08-3.13c.05,2.77-1.4,7.9-3.8,9.28-.74.42-1.54.72-2.27,1.15a18.94,18.94,0,0,0-2.5,2A26.9,26.9,0,0,1,173.42,34a3.27,3.27,0,0,1-.6,1.5,1.42,1.42,0,0,1,.11.38A43.88,43.88,0,0,1,173,46.33c1-.06,2-.12,3-.21.52,0,2.15-.08,4-.16,3.08-.14,6.8-.31,8.7-.31a4,4,0,0,1,.86-.09h.14v-.16l3.25-.13.67,0H194a1,1,0,0,1,.4,0,6.39,6.39,0,0,0,.84,0c1.59-.07,2.08-.12,2.7-.19l.48-.05v0l1.5-.08a.74.74,0,0,1,.46.09,21.91,21.91,0,0,1,2.42-.14V45l.75,0v-.16m-59.6,4.6c3.72-.19,7.81-.35,11.6-.55-1.72.09-3.54.15-5.44.21s-4.06.14-6.16.24Zm-8.24.38h-.38l.14,0h.24m6.76-.3-.95,0c-.73,0-1.52.08-2.2.1h0a2.17,2.17,0,0,1,.72.1l2-.1v-.05l.44,0m1.14-.06h.17v-.07a.67.67,0,0,1-.17.07m14.35-.7h-.1l-.95.06h0l1-.06m35.31-1.57-.14,0-1.76.07c.53,0,1.15,0,1.9,0m1.32,0a2.17,2.17,0,0,1-.35,0v0h-.06l.41,0m13-.65-1.08,0-.51,0-.08.05c.51,0,1-.07,1.59-.13Z"/></g></g></svg>