<svg xmlns="http://www.w3.org/2000/svg" viewBox="0 0 181.64 103.41"><defs><style>.cls-1,.cls-4{font-size:12.32px;font-family:Veneer-TwoRegular, Veneer TwoRegular;}.cls-1,.cls-4,.cls-8{fill:#036a3b;}.cls-1{letter-spacing:0.15em;}.cls-2{letter-spacing:0.15em;}.cls-3{letter-spacing:0em;}.cls-5{letter-spacing:0.15em;}.cls-6{fill:#fff;}.cls-7{fill:#00823f;}.cls-9{fill:#2e2d7e;}</style></defs><title>Asset 7</title><g id="Layer_2" data-name="Layer 2"><g id="Layer_1-2" data-name="Layer 1"><text class="cls-1" transform="translate(43.53 100.35) rotate(-6.65)">r<tspan class="cls-2" x="5.86" y="0">ein.bio.</tspan><tspan class="cls-3" x="58.29" y="0">p</tspan></text><text class="cls-4" transform="translate(98.21 93.98) rotate(-6.65)">fl</text><text class="cls-4" transform="translate(107.26 92.93) rotate(-6.65)"><tspan class="cls-5">a</tspan><tspan class="cls-2" x="7.77" y="0">nzlich</tspan><tspan x="49.12" y="0">.</tspan></text><path class="cls-6" d="M168.86.18,4.56,19.34A5,5,0,0,0,.18,24.87L7.23,85.38a5,5,0,0,0,5.54,4.38l164.3-19.15a5,5,0,0,0,4.38-5.54L174.4,4.56A5,5,0,0,0,168.86.18"/><path class="cls-7" d="M178.41,70.45l-167,19.47a3.65,3.65,0,0,1-4-3.2L0,23.54a3.65,3.65,0,0,1,3.2-4L170.2,0a3.65,3.65,0,0,1,4,3.2l7.37,63.18a3.65,3.65,0,0,1-3.2,4m-1.78-3.62a1.19,1.19,0,0,0,1-1.32L170.62,5a1.19,1.19,0,0,0-1.32-1L5,23.11a1.19,1.19,0,0,0-1,1.32L11,84.94a1.19,1.19,0,0,0,1.32,1Z"/><path class="cls-8" d="M26.6,75.26a1.64,1.64,0,0,1-1.44,1.81l-3,.35A1.64,1.64,0,0,1,20.31,76L15.15,31.56a1.64,1.64,0,0,1,1.44-1.82l3.21-.37a1.64,1.64,0,0,1,1.69,1L34.33,59.27l.11-.14L30.92,29.73a1.64,1.64,0,0,1,1.44-1.81l3-.35A1.64,1.64,0,0,1,37.21,29l5.16,44.43a1.64,1.64,0,0,1-1.44,1.81l-3,.35a1.64,1.64,0,0,1-1.69-1L22.56,43.14l-.11.14Zm31.16-6.77c3.76-.28,2.73-9.17,2.43-11.72s-1.35-11.31-5-10.79C51,46.54,52.06,55,52.36,57.64S53.49,69,57.75,68.48m3.92,2.75-.28-2.46h-.13c-.88,2.91-1.94,4.88-5.36,5.28C48.47,74.92,47,63.2,46.38,58s-1.68-16.15,5.87-17c2.79-.32,4.83,1.17,6.17,3.37h.13l-.22-1.9a1.64,1.64,0,0,1,1.44-1.81l2.67-.31a1.64,1.64,0,0,1,1.81,1.44L67.6,70.54a1.64,1.64,0,0,1-1.44,1.81l-2.67.31a1.64,1.64,0,0,1-1.82-1.44M74.05,29.79l-2.67.31a1.64,1.64,0,0,0-1.44,1.82l.86,7.42-1.6.19a1.64,1.64,0,0,0-1.44,1.81l.16,1.4a1.64,1.64,0,0,0,1.82,1.44l1.6-.19,3,25.72a1.64,1.64,0,0,0,1.82,1.44l2.67-.31A1.64,1.64,0,0,0,80.25,69l-3-25.72,1.54-.18a1.64,1.64,0,0,0,1.44-1.81l-.16-1.4a1.64,1.64,0,0,0-1.82-1.44l-1.54.18-.86-7.42a1.64,1.64,0,0,0-1.82-1.44m11.18,7.88a1.64,1.64,0,0,0-1.44,1.81L86,58.22c.85,7.29,2.61,12,11.26,11,7.26-.84,8.71-5.38,7.95-12l-2.32-20A1.64,1.64,0,0,0,101,35.84l-2.68.31A1.64,1.64,0,0,0,96.92,38L99.09,56.7c.33,2.85,1.22,6.67-2.76,7.13s-4.15-3.76-4.48-6.62L89.72,38.8a1.64,1.64,0,0,0-1.82-1.44Zm29.08-1.77a1.64,1.64,0,0,0-1.82-1.44l-2.74.32a1.64,1.64,0,0,0-1.44,1.81l3.34,28.79a1.64,1.64,0,0,0,1.81,1.44l2.67-.31a1.64,1.64,0,0,0,1.44-1.81l-2.18-18.77c-.19-2.75-.92-6.85,2.81-7.28,3.42-.4,3.69,2.54,4.05,5.07l2.34,20.17a1.64,1.64,0,0,0,1.82,1.44l2.67-.31a1.64,1.64,0,0,0,1.44-1.81l-2.18-18.77c-.33-2.86-1.24-6.81,3-7.3,2.91-.34,3.5,2,3.78,4.39l2.42,20.87a1.64,1.64,0,0,0,1.82,1.44l2.67-.31a1.64,1.64,0,0,0,1.44-1.81l-2.69-23.22c-.49-4.24-2.28-7.54-7.89-6.89a6.83,6.83,0,0,0-6.06,5.17l-.13,0A5.63,5.63,0,0,0,120.45,33c-3,.35-4.86,2.35-5.75,5.13h-.13Zm31.36-3.6L149,61.05a1.64,1.64,0,0,0,1.82,1.44l2.67-.31a1.64,1.64,0,0,0,1.44-1.81L151.6,31.62a1.64,1.64,0,0,0-1.81-1.44l-2.67.31a1.64,1.64,0,0,0-1.44,1.81"/><path class="cls-9" d="M154.08,19.6a6.85,6.85,0,1,1-7.48-6.16,6.86,6.86,0,0,1,7.48,6.16"/><path class="cls-8" d="M163.66,54.49c-.14-1.17-.93-1.62-2.22-1.47l-2.36.28.7,6,.93-.11-.3-2.57,1-.12,1.92,2.38,1-.11-2-2.44a1.54,1.54,0,0,0,1.37-1.81m-2.28,1.22-1.06.13-.22-1.9,1.27-.15c.83-.1,1.29.14,1.36.77s-.24,1-1.35,1.16m5.13-.28A5,5,0,0,0,164.6,52a5,5,0,0,0-3.78-1.07,5.16,5.16,0,0,0-4.53,5.68,5.15,5.15,0,1,0,10.23-1.19m-1.76,3.36a4.18,4.18,0,0,1-6,.71,4.42,4.42,0,0,1-1.57-3,4.33,4.33,0,0,1,.85-3.23,4,4,0,0,1,2.83-1.59,4,4,0,0,1,3.14.91,4.31,4.31,0,0,1,1.55,2.94,4.4,4.4,0,0,1-.83,3.26"/></g></g></svg>