<svg xmlns="http://www.w3.org/2000/svg" viewBox="0 0 287.41 189.11"><defs><style>.cls-1{fill:#036a3b;}</style></defs><title>Asset 8</title><g id="Layer_2" data-name="Layer 2"><g id="Layer_1-2" data-name="Layer 1"><text></text><text></text><path class="cls-1" d="M.77,104.78l0-2,3.07,3.67.33.79v.06l.16.38v.16a38.68,38.68,0,0,1-1.29,7l-.15.6,0,.54-.54.52-.45-.19a.59.59,0,0,1-.42-.48,1,1,0,0,1-.19-.62h0c.05-1.23-.07-3.25-.2-5.39-.1-1.75-.21-3.55-.23-5M.44,129.61a6.36,6.36,0,0,0,.07.78H.29l0,1.32c0,1-.07,2.59-.12,3l-.09.17.25.87H.43l.05,2H.57l.14,4.85v1.8l0,.2H.62v.08H.46v.43h0a27.81,27.81,0,0,0-.2,3.41l1.44.1,0-.17h.14l.2-1.77V145h0c0-.07,0-.14,0-.2h.15v-.09h.17l-.06-2.23v-.13a2,2,0,0,0,.28-1c.15-1,.27-1.93.41-3.88v0l0-.49c0-.41-.06-.94-.06-1.91a2.16,2.16,0,0,0,.21-1.22H3.07v-.24C3,131.71,3,131.18,2.58,131c.06-.43.08-1.06.11-2a2.79,2.79,0,0,0-.17-.83v-.1l-.16-.38c0-.28,0-.67-.08-1.36H2.14c0-.07,0-.1,0-.17H1.92l0-.37H2l0-.52s0-.07,0-.1h.2c0-2.19,0-3-.38-3.26a.58.58,0,0,0-.62-.35h0c-.76,0-.84.37-.82,3.2l-.23,1.3c0,.21-.07.74-.09,1.19,0,.25,0,.47,0,.56H0a3.16,3.16,0,0,0,.44,1.74M287.1,159.71c.32.31.36.6.22,3.26h-.2c-.06.55-.15,1.16-.24,1.79-.15,1-.3,2.07-.36,3h.12a50,50,0,0,1-.14,5.39c0,.25,0,.51,0,.76l.27-.39,0,.68.2-.29-.12,2.59c-.15,3.06-.12,3.7-.1,4.32,0,.34,0,.68,0,1.34l0,1.24a4.19,4.19,0,0,1-.74,2.42l-1.67,2.4.12-.93c-.06,0-.13.05-.19.09l-.09.12v-.09a6.47,6.47,0,0,1-2,.7c-.56.06-1,.08-1.43.09h-.34v.16h-8.72c-.3,0-1.53.05-2.42,0h-.83c-1,.13-3.47.16-10.73.08h-.79v-.07H251.6c-.67.33-2,.53-6.34.55v-.13l-.56,0-.76,0,0-.17c-1.55.08-3.07.06-4.77,0-1.53,0-3.25,0-5.42,0v-.2l-.3,0a17.42,17.42,0,0,1-3.61,0c-.58,0-1.27,0-1.64,0h0l0,.16c-5-.13-11.33-.13-16.92-.14-6,0-11.17,0-13.26-.16a33,33,0,0,0-3.35,0c-.83,0-1.66.06-2.34.06h-2.59l0,0-1.88.05-2.08.06-3.74.13.78-.34-1.16-.06-4.09.32-.79-.23c-1.65.08-3.48,0-5.25,0-.86.14-3.33.2-5.51.25-1.44,0-2.93.06-3.33.12h-.11l-.11,0a19.17,19.17,0,0,0-3.21-.1,16.55,16.55,0,0,1-2.89-.1l-.87.05a1.25,1.25,0,0,1-.92.27c-.12.16-.33.23-.85.23s-1.25-.06-2.46-.15l-1.4-.1h0l-2.58-.11c-.83,0-1.81,0-3.13,0-2.77-.13-5.74-.06-8.87,0-3.51.09-7.13.18-10.57,0v0l-4.13-.07c-1.85,0-3.51-.05-5-.06l.24.17-2.22,0c-3.82.08-6.8.14-9.86.12l-.18.2h-.32c-1.57,0-3.75,0-6,0l-5.1,0a60.82,60.82,0,0,1-6.18-.2c-.78.08-2.66.06-4.82,0-1.51,0-3.07,0-4.16,0l-.83-.16c-2.75,0-4.64,0-6.43,0v.06c-.8.05-1.62.07-2.4.07-1.07,0-2.06,0-2.83-.07h0c-1.25,0-2.66,0-4.45-.1l-1.32,0-3,0c-2.17,0-4.29,0-6.37.05l-.29,0-5.9.1v0c-.72,0-2.05.09-3.09.08-1.46.05-3.77,0-5.91,0h-.52v0l-1,0H28.6v-.28a4.92,4.92,0,0,1-.65-.09l-2.37.13a1.67,1.67,0,0,1-.64-.15c-.69,0-1.76,0-2.89.06l-1.59,0-.23-.84a.63.63,0,0,1-.24-.55c0-.32.08-.5.33-.61a.84.84,0,0,1-.19-.52c0-.87.3-.88,2.51-1l.81-.05c3.44.1,8.25.11,12.48.12,4.63,0,8.63,0,9.94.13l0,.31,7-.12L51.73,185l4.38-.19,2.61-.09c1.61-.05,3.79-.12,4.31-.21l.11-.09.26,0a2,2,0,0,1,.93.27l.4,0,.61,0v.12c.24,0,.79.07,1.28.1s.81.05,1,.08l15.33.17a4.06,4.06,0,0,1,1.06.22c.67,0,1.35-.06,2-.11l-2.22-.61,6.23,0c1.62,0,2.55,0,3.36,0l1.12,0a1.65,1.65,0,0,1,.87-.15,15.74,15.74,0,0,0,2.68-.08l.15-.09.1,0c1.44,0,2,0,2.31.21h.24c.56,0,1.2-.1,1.47-.15l.1-.1.31,0c.31,0,1,.13,1.05,1,0,0,0,0,0,0h3l1.53-1.16c.32-.24.69-.22,2.65-.06.73.06,1.51.13,2.05.14a38.55,38.55,0,0,0,5.42,0c1.2-.07,2.45-.13,3.9-.09v.17c1.46,0,3.11-.07,3.54-.13l.27,0,.4.32c.28-.26,1-.29,3.31-.4l1.22-.05-.34-.28,10.71.12v.29c.22,0,.56.05,1.27.09l3.2.06c1.57,0,2.46.12,2.76.7a43.3,43.3,0,0,0,4.71-.34,40.46,40.46,0,0,1,4.07-.32v-.14c.67,0,2.11,0,3.46,0,1.2,0,2.67,0,2.89,0l.06.75.08-.77a4.66,4.66,0,0,1,1.92.48l4.54-.41h.1l0,.55a9.42,9.42,0,0,0,1.81-.22l0-.34.21,0c1.62.11,2.46.16,3.09.19.8,0,1.26.07,2.51.19v-.4c3-.12,4.84-.06,6.15,0V185h.07l.32,0,2.34.72.06,0,5.37-.69.05.32c4.41-.28,17.63-.2,17.78-.2v.11c1.32,0,3.72,0,5,0v.1c1,0,1.85-.08,2.71-.15a26.85,26.85,0,0,1,4.79-.09v.15h.91l-1.27-.45,4.63.16,1.38,0h8l1.41,0v0h7l.58,0,5.08.12h2l.25-.09.4.09h3.62V185l1.63.05h9.89l2.11-.07,3-.1.66.19c1.88-.07,4,0,6,.08a3.64,3.64,0,0,0,2.86-.53l.14-.18a1.47,1.47,0,0,0,.48-.69,5.77,5.77,0,0,1-.09-1.05l-.21-3,.08,0,0-.74.29.65v-.29c-.15-3.44-.26-5.74-.16-8.79a.68.68,0,0,1-.17-.31c-.25-.25-.26-.77-.25-1.85l0-.21a9.31,9.31,0,0,0,.42-3.39c0-.38-.09-.65-.14-.91a14.57,14.57,0,0,1-.23-2.44l0-1.17,0,0-.22-.51.19-1.86.4,0a2,2,0,0,1,.07-.33c0-.16,0-.31,0-.46l-.73-.08c.09-1.21.12-2.27.15-3.23a24.06,24.06,0,0,1,.31-3.84l.16-.8c0-.64-.05-1.12-.08-1.54a8.72,8.72,0,0,1,.21-3.18l.15-.63c-.06-.65-.13-1.33-.18-1.73l-.1-.72h0l-.45-3.41.3.58-.14-1,.36.72v-1h.1c0-.06,0-.13,0-.2v-.25h-.1c0-.13,0-.28,0-.46h.08l-.05-1.11-.3,1.06v-.56l-.17.59.1-6.08.43-.71c0-.46-.11-.82-.17-1.14a10.19,10.19,0,0,1-.11-3.31h.1l0-.44c-.26-.59-.31-1.94-.33-5.54a43,43,0,0,0-.18-4.9l-.21-.13,0-.44a7.06,7.06,0,0,1,.17-1.13c.09-.86.16-1.34.45-1.53,0-.69-.1-1.33-.15-1.88h-.39c0-.14,0-.29,0-.42l0-3.11.16-.13v-.34l.26-.21a3.13,3.13,0,0,1-.19-1.31l.16-1.21s0,0,0-.08l.17-1.27c-.18-2.83-.11-5.3,0-7.69,0-.93.05-1.86.06-2.82a1.92,1.92,0,0,0-.09-.82l-.06-.18a1.71,1.71,0,0,0-1-1.09,4.54,4.54,0,0,0-2.29-.22h-.43c-2.19.07-4.26.12-6,.09v-.05c-.17,0-.73-.06-1.28-.09s-1.06-.07-1.23-.09l-5.79.16h-.42V88l-1.07,0v-.15l-4.25.16v.11h-1.57c-1.81,0-4.3.05-6.1,0L250.1,88h-.88c-3,0-4.23-.07-7.63.07l-5.87.24,1.54-.44a37.72,37.72,0,0,1-4.18.05h-.64l0-.15c-.74,0-1.34.08-1.88.12s-1.28.09-1.93.09c-.28.2-1.06.2-3.24.21-.74-.06-2-.11-3.11-.14v.13a57.57,57.57,0,0,1-7.15-.25c-.7-.07-1.35-.13-2.38-.16v.37c-1.55.05-3.1,0-4.6,0-1.76-.06-3.59-.12-5.46,0v-.17l-.56,0-3.24.13.29-.18c-1.07,0-2.08,0-3,0a29.78,29.78,0,0,0-4.76.15l0-.13c-.31,0-1.07,0-1.7,0-1.21,0-2.58.06-3.37,0v-.13c-.36,0-.73,0-1.06.08-1.72-.08-3.11,0-4.45,0-1.12,0-2.19,0-3.28,0v0c-3.14,0-5-.19-6.54-.32-.74-.06-1.38-.11-2-.14-.18.39-.76.45-1.36.52a44.91,44.91,0,0,0-6.27-.11c-2.36.06-5.31.13-9.24,0v-.29l-.19-.06c-2,0-2.62.08-3.54.15l-.73.05-1.28-.14c-1.67.12-2.29.18-2.74.23-.8.08-1,.11-5.78.21v-.13l-.5,0a6.33,6.33,0,0,1-1.24-.14h0c-1.81,0-3.57,0-4.91.12v0c-3.39,0-4.94,0-6.3,0s-2.71-.06-5.83,0v.1c-8.1.2-18.12.1-26.76.16V88L90,88c-2.06,0-4.88.07-6.74,0v-.26l-1.31,0-.84.15-1-.12h-.44c-.27.21-.82.19-1.89.2-1.11-.21-5.23-.22-8.87-.23H66.49l1.06.24-6.49-.06L52,87.8c-4.73-.07-8.46-.14-14.42-.1v0a50.88,50.88,0,0,0-6.07.12l-.81.08,0-.2c-2.77.14-5.54,0-8-.06a52.08,52.08,0,0,0-5.81,0l-2.44.21.74-.56-.94-.11a7.58,7.58,0,0,1-2.6-.48L11,85.56a3.92,3.92,0,0,1-1.46,0l-4.38-.51,4.92-1.51a25.22,25.22,0,0,1,4.33-.15c1.84,0,3.92,0,4.55-.12l5,.16v-.16l1,0c.18-5.23.53-12.37.86-17.47.22-3.43.44-6.87.62-10.3a31.29,31.29,0,0,0-.1-5.31c-.07-.57-.2-1.35-.59-1.61a1.8,1.8,0,0,0-1.33,0,2.73,2.73,0,0,1-2.46-.34,3.64,3.64,0,0,1-1.31-2.9,9.64,9.64,0,0,0-.23-1.52,8,8,0,0,1-.23-2.59c.08-.73.27-2.46,2-2.64a3,3,0,0,1,3,1.54,13,13,0,0,1,1.63,4c.17.6.34,1.21.55,1.8.06.16.11.32.16.48s0,.16.07.24a6.48,6.48,0,0,0-.7-6.61A3.6,3.6,0,0,1,26,38.13c-.09-1.88-.17-3.54-1.22-4.94a2.43,2.43,0,0,1,0-2.38c.57-1.57,1.22-3,1.85-4.43a47.66,47.66,0,0,0,2.28-5.73A3.46,3.46,0,0,1,31,18.45a3.52,3.52,0,0,1,3.06.17,1.91,1.91,0,0,1,1.12,2.08,13.17,13.17,0,0,0-.17,1.95,9.05,9.05,0,0,1-.64,3.6l-.1.2a2.27,2.27,0,0,0-.11.22A6.12,6.12,0,0,1,32.46,33a3.9,3.9,0,0,0,.18.38c.07.13.14.26.18.39a5.82,5.82,0,0,1-1,6.38,5.84,5.84,0,0,0-1.17,2.78A97,97,0,0,0,28.77,63v.25a1.83,1.83,0,0,0,0,.5,1.47,1.47,0,0,0,.42-.32l1.17-1.06c1.32-1.18,2.64-2.36,3.9-3.6a4.68,4.68,0,0,1,2.83-1.6,2.86,2.86,0,0,0,.56-.16c.63-.22,2.11-.73,2.77,1.11a4.54,4.54,0,0,1-.34,3.57,2.82,2.82,0,0,1-1.8,1.49c-1,.21-1.31.45-1.58,1.11-.77,1.92-2.48,1.39-3.3,1.13a5,5,0,0,0-.53-.15,4.76,4.76,0,0,0-3.16.86,2.2,2.2,0,0,0-1,1.31A92.63,92.63,0,0,0,27.85,81l1.47-.36.62-1.12a64.53,64.53,0,0,1,10.8-13.81,54.22,54.22,0,0,0,6-7.76c.45-.66.89-1.32,1.34-2a2.9,2.9,0,0,0,.18-.31,2,2,0,0,1,1.52-1.27l.28,0,.24.16a1.3,1.3,0,0,1,.38,1.91,18.57,18.57,0,0,1-4.29,6.92,65.39,65.39,0,0,0-7.68,10.53c-1.26,2-2.57,4.08-4,6l-.61-.44-2.77.68,0,.08c-.53,1-1.08,1.95-1.62,2.92,9.43.27,19.06.26,28.42.22h0c0-.17,0-.35,0-.52,0-1.06-.1-2.12-.16-3.18s-.14-2.25-.17-3.37,0-2.29,0-3.43c0-1.94,0-3.95-.14-5.9-.31-4.23-.43-8.54-.54-12.7L57,53c0-1,0-2,0-3,0-1.43,0-2.9-.08-4.34-.24-3.69-.46-7.37-.67-11.06l-.19-3.15c-.27-4.58-.75-9.16-1.24-13.42-.1-.85-.26-1.72-.41-2.56A30.58,30.58,0,0,1,53.93,12l0-.28a9.69,9.69,0,0,1,0-1.67,9.32,9.32,0,0,0-.25-3.41,8.92,8.92,0,0,1,.2-5.23A2,2,0,0,1,55.57,0c1-.06,1.38.88,1.57,1.33l.08.19a4.13,4.13,0,0,1,.45,2.41.68.68,0,0,0,0,.37,5,5,0,0,1,.41,2.92,10,10,0,0,0,.15,2.29c0,.25.07.5.1.75a15.67,15.67,0,0,1-.81,7,1.75,1.75,0,0,0-.12.41,43.15,43.15,0,0,1-.1,4.53,27.38,27.38,0,0,0,.16,6.71,21,21,0,0,1,.27,3.24l0,.88c.06,1.35.24,2.73.41,4.05s.38,2.94.43,4.43q.09,2.84.15,5.67c.28-1.28.58-2.58.91-3.85.38-1.48.88-3.08,1.53-4.91a27,27,0,0,0,1.13-5.52c.08-.6.16-1.21.25-1.81.18-1.14.34-2.21.51-3.29a1,1,0,0,1,.91-.92l.49-.08.1.48a13.18,13.18,0,0,1,.13,4.54,25.06,25.06,0,0,1-.95,4,25.22,25.22,0,0,0-.88,3.59c-.33,2.29-.63,4.59-.94,6.88q-.33,2.47-.66,4.95l-.34,2.46c-.39,2.88-.79,5.85-1.29,8.76a37.59,37.59,0,0,0-.21,8.16c0,.25,0,.5,0,.75a152.31,152.31,0,0,1,5.18-15.92c2.17-5.76,4.52-11.89,7.26-17.94l.28-.63.53.44a1,1,0,0,1,.32,1.22l-1.78,4.64q-1.69,4.4-3.36,8.8c-.54,1.43-1.1,2.86-1.66,4.29A104.11,104.11,0,0,0,61.56,70l-.19.75c-.13.53-.26,1-.36,1.56a50.29,50.29,0,0,1,3.89-6.44c.41-.62.83-1.23,1.24-1.86a35.8,35.8,0,0,0,3-6.06l.69-1.69c.32-.79.64-1.57,1-2.35l.06-.16c.1-.28.39-1.11,1.18-.86a.87.87,0,0,1,.54.45,1.2,1.2,0,0,1-.06,1,1.09,1.09,0,0,0-.06.18,25.48,25.48,0,0,1-2.77,6.69l-.37.7c-2.51,4.75-5.5,9.32-8.13,13.35a7,7,0,0,0-1.48,4.8,25.65,25.65,0,0,1,.16,3.31c7.09,0,14.35,0,21.38.08h.07v-.16a13.67,13.67,0,0,0,3.31,0,11.64,11.64,0,0,1,1.5-.12l4.63.32.68-.26c4,0,7.87,0,11.64.06,3,0,5.87.06,8.61.05a16.18,16.18,0,0,1-6.06-4C101.56,75.28,100,68.29,99.94,68c0-.11-.22-1.07.44-1.51s1.8-.09,3.55,1.13a28.42,28.42,0,0,1,8.38,9.61c0-1.72-.06-2.5-.6-2.9-1.28-1-4.91-9.29-4.86-12.38,0-1.5-1.45-3.07-2.45-3.76s-1.17-1-1-1.4.69-.43.87-.44a9.55,9.55,0,0,1,2.41.55c1.86.64,4.42,3,7,6.54s.65,9.56.36,10.34l.58,9.52,1.81,0a3.08,3.08,0,0,1,1.42.24,27.9,27.9,0,0,1,4.29-.18c1.18,0,2.63,0,3.11-.06v-.09l.21,0c1.28.14,3.43.17,5.33.2,3.11,0,4.22.06,4.64.36.65,0,1.08,0,1.38,0v-.24h2.94a72.06,72.06,0,0,0,.93-17.08c-2.69.47-5.44-1.65-6.69-3.84-1.44-2.53-2-5.47-3.05-8.15-2.49-6.12-9.47-8.52-12.2-14.39-.63-1.36,1.36-2.6,2.53-2.47a25.56,25.56,0,0,1,20.88,16.9,1,1,0,0,1,1.07.14,19.36,19.36,0,0,1,2.64-9.7c1.37-2.3,3.56-4.48,6.24-4.47,2.41,0,4.43,1.74,6.72,2.5s5.13-3.69,7.24-5.06c-.12,4.75-3,13.45-7.23,15.62-1.3.67-2.7,1.11-4,1.8a32.51,32.51,0,0,0-4.44,3.19,46.32,46.32,0,0,1-6.12,4A5.62,5.62,0,0,1,143.16,65a2.5,2.5,0,0,1,.16.66,75.34,75.34,0,0,1-.61,17.86c1.8,0,3.48-.06,5.2-.14.89,0,3.7,0,7,0,5.29,0,11.68,0,15,.13a7,7,0,0,1,1.49-.09h.23v-.27l5.59,0h1.14a3.4,3.4,0,0,1,.37,0,1.69,1.69,0,0,1,.69.11,11.05,11.05,0,0,0,1.44.07c2.72,0,3.58-.05,4.64-.13l.83-.06v-.07l2.58,0a1.26,1.26,0,0,1,.78.19,38,38,0,0,1,4.17-.05v.21h1.28l0-.27c5.76,0,11.62.05,17.57.1q10.79.08,21.94.1h1.47l-.09.11,2.53,0c4.13,0,5,0,5.2.42h.61v-.4l5.33-.17c1.68-.4,6.2-.32,11.44-.21,3.7.07,7.53.14,10.86.05v.06c1.57,0,3.2,0,4.8,0l2.65,0-.6-.73,1,.73h1.1a7.37,7.37,0,0,1,1.65.19,5.53,5.53,0,0,1,4,3.24,4.55,4.55,0,0,1,.3,1.65c0,.32,0,.56,0,.71l0,.19-.22.5c0,.07,0,.16,0,.22,0,.21,0,.33,0,.47a85.22,85.22,0,0,1,.19,10.79l0,1.26a51.14,51.14,0,0,1,.17,5.86l0,3.33v0l0,3.68h-.17v1h-.08c0,1,0,2.35.08,3.55.13,3.8.19,6.44-.16,7.62.13,1,.2,3.32.26,5.35,0,.92.06,1.77.09,2.41a5.15,5.15,0,0,1,.13,1.11v.14l-.13.4a49.36,49.36,0,0,1-.07,5.23c-.06,1.3-.12,2.55-.1,3.54,0,.1,0,.19,0,.27l.32,0a63.79,63.79,0,0,0,.11,7.6,31.82,31.82,0,0,1,.1,3.35c0,1.24-.05,1.75-.41,2,0,.38,0,.62.05.76ZM92.51,86.52c6.39,0,13.43,0,19.95-.06-2.95,0-6.08,0-9.35-.05-3.43,0-7-.08-10.59-.07Zm91.89,100.35,0-.11v-.08l0,.13v.07Zm0,0h0v0Zm.08-.12v.08h0ZM78.35,86.54H77.7l.24,0h.38l0,0m11.62,0-1.62-.11c-1.26,0-2.61,0-3.79,0h0a3.71,3.71,0,0,1,1.23.23c1.12,0,2.35,0,3.43,0v-.09H90m2,0h.3V86.4a1.15,1.15,0,0,1-.3.12m24.67-.11h-.18l-1.63,0h0l1.8,0m60.68,0a.77.77,0,0,1-.23-.09h-3c.91,0,2,.08,3.25.1m2.26.05a3.91,3.91,0,0,1-.6-.07v.05h-.11v0c.18,0,.47,0,.71,0m22.38-.12h-1.85l-.88,0-.14.09c.88,0,1.79,0,2.73-.11Zm6.23.32v-.22c-1.27,0-2.55-.06-3.86,0l-.06,0h.68v.17c1.1,0,2.18,0,3.23.07m14.1,0v-.09c-2.42,0-3.93,0-5-.08l-2.88,0,.9.08c.87.08,1.83.18,3.7.22a2.42,2.42,0,0,1,1-.17l2.32.06"/><path class="cls-1" d="M116.79,118.51c.36-.07,1,0,.41-.51-.11-.09-.47.21-.42.49-.43-.08-.72.13-.72.39,0,.42-.28.9.27,1.29.8-.46.3-1.13.46-1.67"/><path class="cls-1" d="M212.46,136.65c1.11-.73.72-1.59.71-2.37l-1.1-.84-2.12-.05-.65-.43c-1.33.34-1.17,1.41-2,2,.13.63-.42,1.33.32,1.9.9-.36,1.08-1.14,1.64-1.68a1.12,1.12,0,0,1,1,.31c0,.36,0,.74,0,1.38,1.13-.42,1.36.82,2.76.66l.26-.19-.78-.64"/><path class="cls-1" d="M222.78,122.8a3.48,3.48,0,0,0,.07-2.9l-1.05.85c0,.64-.36,1.36.22,2l.76,0"/><path class="cls-1" d="M93.83,89.82c0,.72-.05,1.19,0,1.66,0,.16.15.32.23.48.16-.07.48-.17.47-.21-.15-.57.5-.78.76-1.16.14-.2.15-.55-.33-.79l-1.1,0"/><path class="cls-1" d="M186,131.37l-.71-.5c-.27-.51.41-1.13-.53-1.5-.39.5-.21,1-.25,1.43,0,.26-.17.56.25.78a1.09,1.09,0,0,0,1.24-.21"/><path class="cls-1" d="M206.44,112.35a1.94,1.94,0,0,0-2.24-.09c0,.31-.24.71.4.81l.71-.42.9.58.23-.88"/><path class="cls-1" d="M118.9,95l1.24-.15a.67.67,0,0,0-.21-1.09l-1,.12,0,1.12"/><path class="cls-1" d="M226.61,118.3c.46-.38.54-.76,0-1.16-.57.08-1.18-.2-1.71.14-.08.37.22.43.57.41.6,0,.74.4,1.14.61"/><path class="cls-1" d="M92.88,93c1.75.28,1.74.27,2.76-.6-1.21.47-1.86,0-2.76.6"/><path class="cls-1" d="M156.36,111.52c.11.49-.67,1.06.16,1.61a1,1,0,0,0-.16-1.61"/><path class="cls-1" d="M85.67,97a8.27,8.27,0,0,0-.17.91c0,.06.17.2.23.19s.46-.11.47-.19c0-.25.19-.56-.54-.91"/><path class="cls-1" d="M201.84,132.6c-.49.51-.72.87.08,1.13.41-.33.39-.65-.08-1.13"/><path class="cls-1" d="M150,135.41c-.08.06-.25.14-.24.18a1.67,1.67,0,0,0,.22.39c.08-.06.25-.14.24-.18a1.68,1.68,0,0,0-.22-.39"/><path class="cls-1" d="M102.22,90l-.27.2a2.63,2.63,0,0,0,.49.19c.06,0,.16-.11.25-.17l-.47-.22"/><path class="cls-1" d="M224.62,133.69l.48-.19c-.08-.07-.18-.19-.24-.19a2.62,2.62,0,0,0-.5.17l.26.21"/><path class="cls-1" d="M209.37,131.19l-.48.19c.08.07.18.19.24.19a2.7,2.7,0,0,0,.5-.17l-.26-.21"/><path class="cls-1" d="M212.46,136.65l.78.64-.26.19c-1.39.16-1.63-1.08-2.76-.66,0-.64,0-1,0-1.38a1.12,1.12,0,0,0-1-.31c-.56.54-.74,1.33-1.64,1.68-.74-.58-.19-1.27-.32-1.9.81-.54.65-1.62,2-2l.65.43,2.12.05,1.1.84c0,.77.41,1.63-.71,2.37"/><path class="cls-1" d="M222.78,122.8l-.76,0c-.58-.67-.27-1.39-.22-2l1.05-.85a3.48,3.48,0,0,1-.07,2.9"/><path class="cls-1" d="M93.83,89.82l1.1,0c.48.23.46.59.33.79-.26.38-.91.59-.76,1.16,0,0-.3.14-.47.21-.08-.16-.22-.32-.23-.48,0-.47,0-.94,0-1.66"/><path class="cls-1" d="M186,131.37a1.09,1.09,0,0,1-1.24.21c-.42-.22-.27-.52-.25-.78,0-.45-.14-.92.25-1.43.94.38.26,1,.53,1.5l.71.5"/><path class="cls-1" d="M206.44,112.35l-.23.88-.9-.58-.71.42c-.65-.1-.37-.5-.4-.81a1.94,1.94,0,0,1,2.24.09"/><path class="cls-1" d="M118.9,95l0-1.12,1-.12a.67.67,0,0,1,.21,1.09L118.9,95"/><path class="cls-1" d="M226.61,118.3c-.4-.21-.54-.66-1.14-.61-.35,0-.65,0-.57-.41.53-.34,1.14-.06,1.71-.14.54.4.46.78,0,1.16"/><path class="cls-1" d="M92.88,93c.91-.58,1.56-.12,2.76-.6-1,.86-1,.88-2.76.6"/><path class="cls-1" d="M116.79,118.5c-.16.55.34,1.23-.46,1.68-.54-.39-.28-.87-.27-1.29,0-.26.29-.47.73-.39"/><path class="cls-1" d="M156.36,111.52a1,1,0,0,1,.16,1.61c-.83-.55,0-1.12-.16-1.61"/><path class="cls-1" d="M85.67,97c.73.35.56.65.54.91,0,.08-.3.16-.47.19s-.23-.13-.23-.19a8.27,8.27,0,0,1,.17-.91"/><path class="cls-1" d="M201.84,132.6c.47.48.49.8.08,1.13-.8-.26-.57-.62-.08-1.13"/><path class="cls-1" d="M150,135.41a1.68,1.68,0,0,1,.22.39s-.15.12-.24.18a1.67,1.67,0,0,1-.22-.39s.15-.12.24-.18"/><path class="cls-1" d="M116.79,118.51c-.06-.3.3-.6.41-.51.56.46,0,.44-.41.51"/><path class="cls-1" d="M102.22,90l.47.22c-.08.06-.19.19-.25.17a2.63,2.63,0,0,1-.49-.19l.27-.2"/><path class="cls-1" d="M224.62,133.69l-.26-.21a2.62,2.62,0,0,1,.5-.17c.06,0,.16.12.24.19l-.48.19"/><path class="cls-1" d="M209.37,131.19l.26.21a2.7,2.7,0,0,1-.5.17c-.06,0-.16-.12-.24-.19l.48-.19"/></g></g></svg>