<svg xmlns="http://www.w3.org/2000/svg" viewBox="0 0 224.8 104.04"><defs><style>.cls-1{fill:#036a3b;}</style></defs><title>Asset 2</title><g id="Layer_2" data-name="Layer 2"><g id="Layer_1-2" data-name="Layer 1"><path class="cls-1" d="M224.8,103.64a35,35,0,0,0-5.61.18l0-.15c-.36,0-1.27,0-2,0-1.42,0-3,.07-4,0v.17c-.43,0-.85,0-1.24.1-2-.09-3.63-.06-5.2,0-1.31,0-2.56.05-3.83,0v0c-3.67,0-5.85-.22-7.64-.37-.86-.07-1.61-.13-2.38-.17-.21.46-.88.54-1.59.61a51.89,51.89,0,0,0-7.33-.13c-2.76.07-6.21.16-10.8,0v-.34l-.22-.07c-2.39,0-3.06.09-4.14.18l-.85.07-1.49-.16c-1.95.14-2.68.21-3.2.27-.93.1-1.21.13-6.76.25v-.15l-.58,0a7.44,7.44,0,0,1-1.45-.16H154c-2.14,0-4.22,0-5.81.14v0c-4,0-5.84,0-7.46,0s-3.2-.07-6.89,0v.11c-9.58.23-21.43.12-31.65.18v-.21l-2.47,0c-2.31,0-5.45.08-7.53,0v-.3l-1.59,0-1,.17-1.19-1h-.52c-.31,1.11-1,1.09-2.22,1.1-1.3-.25-6.17-.26-10.46-.27H72.33l1.25.17H65.93c-4.31,0-7.68,0-10.71-.09-5.58-.08-10-.16-17-.12v-.05a60,60,0,0,0-7.15.14l-1,.1,0-.24c-3.26.17-6.53,0-9.46-.07a61.54,61.54,0,0,0-6.86,0l-2.87.25.87-.67-1.11-.13a9,9,0,0,1-3.06-.57l-.68-1.26a4.64,4.64,0,0,1-1.72,0L0,100.34l5.8-1.78a29.79,29.79,0,0,1,5.11-.18c2.17,0,4.63,0,5.37-.14l5.84.18v-.19l1.12,0c.22-6.17.62-14.59,1-20.61.26-4,.52-8.1.73-12.16a37,37,0,0,0-.12-6.26c-.08-.67-.23-1.59-.69-1.9a2.13,2.13,0,0,0-1.57,0,3.22,3.22,0,0,1-2.9-.4,4.29,4.29,0,0,1-1.54-3.42,11.49,11.49,0,0,0-.27-1.8,9.5,9.5,0,0,1-.27-3.06c.1-.87.33-2.9,2.38-3.11a3.56,3.56,0,0,1,3.51,1.81A15.4,15.4,0,0,1,25.42,52c.2.71.4,1.43.65,2.12.07.18.13.38.19.57s.06.19.09.28a7.64,7.64,0,0,0-.82-7.8,4.25,4.25,0,0,1-.91-2.2c-.1-2.22-.2-4.18-1.44-5.83a2.87,2.87,0,0,1,0-2.8c.67-1.85,1.44-3.57,2.19-5.22A56.2,56.2,0,0,0,28,24.37a4.08,4.08,0,0,1,2.48-2.61,4.15,4.15,0,0,1,3.61.2,2.25,2.25,0,0,1,1.33,2.45,15.73,15.73,0,0,0-.2,2.3A10.67,10.67,0,0,1,34.5,31l-.12.24a2.51,2.51,0,0,0-.13.26,7.22,7.22,0,0,1-2.07,7.48,4.58,4.58,0,0,0,.21.44c.08.16.16.31.22.46a6.87,6.87,0,0,1-1.2,7.53A6.88,6.88,0,0,0,30,50.64c-1.6,8.35-1.84,23.73-1.84,23.73v.3s-.36.5-.31.59a1.72,1.72,0,0,0,.49-.38l1.38-1.25c1.55-1.39,3.11-2.79,4.6-4.25a5.52,5.52,0,0,1,3.34-1.88,3.57,3.57,0,0,0,.66-.19c.75-.26,2.49-.86,3.27,1.31a5.36,5.36,0,0,1-.4,4.21,3.33,3.33,0,0,1-2.13,1.75c-1.15.25-1.55.53-1.86,1.31-.91,2.26-2.92,1.64-3.89,1.33a5.89,5.89,0,0,0-.62-.17,5.61,5.61,0,0,0-3.72,1,2.6,2.6,0,0,0-1.18,1.55,109.35,109.35,0,0,0-1.06,15.92l1.73-.42.74-1.33C32.81,87.26,37.67,81.9,42,77.51a64,64,0,0,0,7-9.16c.52-.78,1-1.56,1.58-2.33a3.21,3.21,0,0,0,.21-.37,2.39,2.39,0,0,1,1.79-1.49l.33-.05.29.19a1.54,1.54,0,0,1,.45,2.26,21.89,21.89,0,0,1-5.06,8.17,77.19,77.19,0,0,0-9.06,12.42c-1.49,2.36-3,4.81-4.7,7.13l-.72-.52-3.27.8-.06.09c-.63,1.15-1.27,2.3-1.91,3.44,11.12.32,22.48.31,33.52-.42h.06c0,.48,0,.27,0,.07,0-1.25-.11-2.5-.19-3.75s-.17-2.65-.2-4,0-2.7,0-4c0-2.29,0-4.65-.17-7-.36-5-.5-10.07-.64-15l0-1.48c0-1.19,0-2.38,0-3.57,0-1.68,0-3.43-.09-5.12-.28-4.35-.54-8.7-.79-13.05L60,37.09c-.31-5.4-.89-10.8-1.46-15.83-.11-1-.3-2-.48-3a36.34,36.34,0,0,1-.58-4l0-.33a11.33,11.33,0,0,1,0-2,11,11,0,0,0-.29-4,10.53,10.53,0,0,1,.24-6.17,2.32,2.32,0,0,1,2-1.72c1.21-.07,1.63,1,1.85,1.57l.09.23a4.87,4.87,0,0,1,.53,2.85.8.8,0,0,0,0,.43,5.91,5.91,0,0,1,.48,3.45,11.85,11.85,0,0,0,.17,2.71c0,.3.08.59.12.89a18.48,18.48,0,0,1-1,8.23,2,2,0,0,0-.14.48,51,51,0,0,1-.12,5.34,32.34,32.34,0,0,0,.18,7.91A24.75,24.75,0,0,1,62,37.91l0,1c.07,1.6.28,3.22.48,4.78S63,47.19,63,49q.1,3.34.17,6.69c.33-1.51.68-3,1.07-4.55.45-1.74,1-3.64,1.81-5.79A31.87,31.87,0,0,0,67.4,38.8c.09-.71.19-1.43.3-2.14.21-1.34.4-2.61.61-3.88a1.16,1.16,0,0,1,1.07-1.09l.58-.09.12.57a15.57,15.57,0,0,1,.15,5.36,29.67,29.67,0,0,1-1.12,4.69,30,30,0,0,0-1,4.23c-.39,2.7-.74,5.41-1.1,8.12-.26,1.95-.51,3.89-.78,5.84l-.4,2.9c-.46,3.39-.93,6.9-1.52,10.33A44.45,44.45,0,0,0,64,83.28c0,.29,0,.59,0,.88a179.23,179.23,0,0,1,6.11-18.78c2.56-6.8,5.34-14,8.56-21.16l.33-.74.63.52a1.14,1.14,0,0,1,.38,1.44L78,50.91q-2,5.19-4,10.38c-.64,1.69-1.3,3.37-2,5.06a122.9,122.9,0,0,0-5.54,16.26l-.22.88c-.15.62-.31,1.23-.43,1.84a59.31,59.31,0,0,1,4.59-7.6c.49-.73,1-1.46,1.46-2.19a42.34,42.34,0,0,0,3.51-7.15l.82-2c.38-.93.76-1.85,1.15-2.78l.07-.19c.11-.33.46-1.31,1.4-1a1,1,0,0,1,.64.53,1.42,1.42,0,0,1-.07,1.15,1.34,1.34,0,0,0-.07.21,30.06,30.06,0,0,1-3.27,7.89l-.44.83c-3,5.61-6.48,11-9.6,15.75a8.25,8.25,0,0,0-1.74,5.67,30.22,30.22,0,0,1,.19,3.91c8.37,0,25.23.32,25.23.32h.08l0-.41a16.1,16.1,0,0,0,3.91,0,13.92,13.92,0,0,1,1.77-.14l5.46.38.81-.3c4.67,0,9.28,0,13.73.07,3.54,0,6.92.07,10.16.06a19.12,19.12,0,0,1-7.15-4.68c-4.79-4.8-6.63-13.05-6.7-13.4,0-.12-.26-1.26.52-1.79s2.12-.11,4.19,1.33a33.54,33.54,0,0,1,9.88,11.34c0-2-.07-2.94-.71-3.42-1.51-1.12-5.8-11-5.74-14.6,0-1.77-1.72-3.62-2.89-4.44-1-.71-1.38-1.19-1.22-1.66s.82-.51,1-.51a11.3,11.3,0,0,1,2.84.65c2.2.76,5.22,3.57,8.29,7.72s.76,11.28.43,12.2l.69,11.24,2.13,0a3.64,3.64,0,0,1,1.68.28A32.66,32.66,0,0,1,138,98.3c1.4,0,3.1,0,3.67-.07v-.11l.25,0c1.52.16,4,.2,6.28.24,3.67.06,5,.08,5.48.43.76,0,1.28,0,1.62,0v-.28h3.47a85,85,0,0,0,1.09-20.14c-3.17.55-6.42-1.94-7.89-4.53-1.7-3-2.31-6.45-3.6-9.62-2.94-7.22-11.17-10-14.39-17-.74-1.6,1.61-3.07,3-2.91A30.15,30.15,0,0,1,161.6,64.26a1.19,1.19,0,0,1,1.27.17A22.85,22.85,0,0,1,166,53c1.61-2.72,4.2-5.28,7.36-5.27,2.84,0,5.23,2.05,7.93,2.94s6.05-4.35,8.55-6c-.14,5.6-3.54,15.87-8.53,18.42-1.53.78-3.18,1.31-4.7,2.13A38.35,38.35,0,0,0,171.34,69a54.74,54.74,0,0,1-7.22,4.67,6.63,6.63,0,0,1-1.35,3,2.91,2.91,0,0,1,.19.78,88.86,88.86,0,0,1-.72,21.07c2.12,0,4.11-.07,6.13-.16,1,0,4.36,0,8.2,0,6.24,0,13.78,0,17.64.16a8.18,8.18,0,0,1,1.76-.11h.27l0,.25,6.59-1h1.35s.3.45.44.47a2,2,0,0,1,.81.13,13.27,13.27,0,0,0,1.7.09c3.21,0,4.23-.06,5.47-.15l1-.07v.54h3s.64-.64.92-.41a44.8,44.8,0,0,1,4.92-.06v.47H224l0-.32"/><path class="cls-1" d="M103,102.06c7.54,0,15.84,0,23.53-.07-3.48,0-7.17,0-11-.06-4,0-8.23-.09-12.49-.08Z"/><path class="cls-1" d="M86.32,102.09h-.77l.29,0h.45l0,0"/><path class="cls-1" d="M100.08,102.09,98.17,102c-1.49,0-3.08,0-4.47,0h0a4.35,4.35,0,0,1,1.45.27c1.32,0,2.78,0,4.05,0v-.11h.9"/><path class="cls-1" d="M102.18,101.67h.51v-.14a1.38,1.38,0,0,1-.36.14"/><path class="cls-1" d="M131.31,101.94h-.21l-1.92,0h0l2.13,0"/><path class="cls-1" d="M203,101.77a.88.88,0,0,1-.28-.1h-3.56c1.07.06,2.33.1,3.84.12"/><path class="cls-1" d="M205.7,102c-.36,0-.57-.05-1.52-.08V102h1v0h.52"/></g></g></svg>